<?xml version="1.0" encoding="UTF-8" standalone="no"?>
<svg
   width="16"
   height="16"
   viewBox="0 0 16 16"
   fill="currentColor"
   version="1.1"
   id="svg1"
   sodipodi:docname="bookmark.svg"
   inkscape:version="1.3.2 (091e20e, 2023-11-25, custom)"
   xmlns:inkscape="http://www.inkscape.org/namespaces/inkscape"
   xmlns:sodipodi="http://sodipodi.sourceforge.net/DTD/sodipodi-0.dtd"
   xmlns="http://www.w3.org/2000/svg"
   xmlns:svg="http://www.w3.org/2000/svg">
  <defs
     id="defs1" />
  <sodipodi:namedview
     id="namedview1"
     pagecolor="#ffffff"
     bordercolor="#000000"
     borderopacity="0.25"
     inkscape:showpageshadow="2"
     inkscape:pageopacity="0.0"
     inkscape:pagecheckerboard="0"
     inkscape:deskcolor="#d1d1d1"
     inkscape:zoom="38.03125"
     inkscape:cx="4.5094495"
     inkscape:cy="9.6894002"
     inkscape:window-width="2538"
     inkscape:window-height="1472"
     inkscape:window-x="155"
     inkscape:window-y="0"
     inkscape:window-maximized="0"
     inkscape:current-layer="svg1" />
  <path
     d="M12.5 1h-9l-.5.5v13l.872.335L8 10.247l4.128 4.588L13 14.5v-13l-.5-.5zM12 13.2L8.372 9.165h-.744L4 13.2V2h8v11.2z"
     id="path1"
     style="fill:#193186;fill-opacity:1" />
  <path
     d="M 9.8366085,8.5087733 H 6.4230824 V 7.7245307 Q 6.778658,7.3868184 7.1342337,7.0491063 7.4931956,6.7113941 7.801361,6.3774343 8.4515565,5.6794957 8.6919935,5.2704888 8.9324306,4.8577295 8.9324306,4.3811801 q 0,-0.4352735 -0.2607555,-0.6791767 -0.2573694,-0.2476557 -0.7213107,-0.2476557 -0.3081654,0 -0.6671276,0.1200755 -0.358962,0.1200754 -0.7009919,0.3677311 H 6.5483804 V 3.1541591 Q 6.7888173,3.0228267 7.1884165,2.9140083 7.5914021,2.8051899 7.9672966,2.8051899 q 0.7754935,0 1.2157296,0.4165117 0.4402366,0.4127593 0.4402366,1.1219549 0,0.3189504 -0.074501,0.5966248 Q 9.4776468,5.2142034 9.3354163,5.461859 9.2033457,5.6945052 9.0238646,5.9196467 8.8477698,6.1447881 8.5937872,6.4187102 8.2314388,6.8127077 7.8453852,7.1841912 7.4593321,7.5519222 7.1240748,7.8671202 h 2.7125341 z"
     id="text1"
     style="fill:#193186;stroke:#000000;stroke-width:0.00811166"
     inkscape:label="text1"
     aria-label="2" />
</svg>
