<svg xmlns="http://www.w3.org/2000/svg" xmlns:xlink="http://www.w3.org/1999/xlink" width="56" zoomAndPan="magnify" viewBox="0 0 42 42" height="56" preserveAspectRatio="xMidYMid meet" version="1.0"><defs><g/><clipPath id="f1778b0a5f"><path d="M 3.917969 0 L 38.351562 0 L 38.351562 41 L 3.917969 41 Z M 3.917969 0 " clip-rule="nonzero"/></clipPath></defs><g clip-path="url(#f1778b0a5f)"><path fill="#000000" d="M 37.25 40.773438 L 34.746094 38.167969 C 30.203125 33.433594 25.65625 28.703125 21.113281 23.96875 L 5.019531 40.773438 C 4.839844 40.960938 4.5625 41.019531 4.320312 40.925781 C 4.078125 40.828125 3.917969 40.59375 3.917969 40.335938 L 3.917969 0.636719 C 3.917969 0.285156 4.207031 0.00390625 4.558594 0.00390625 L 37.710938 0.00390625 C 38.0625 0.00390625 38.347656 0.285156 38.347656 0.636719 L 38.347656 40.335938 C 38.351562 40.59375 38.191406 40.828125 37.949219 40.925781 C 37.707031 41.019531 37.429688 40.960938 37.25 40.773438 Z M 21.113281 22.417969 C 21.113281 22.417969 21.339844 22.417969 21.574219 22.613281 C 21.753906 22.761719 28.261719 29.542969 37.074219 38.753906 L 37.074219 1.269531 L 5.195312 1.269531 L 5.195312 38.75 L 20.652344 22.613281 C 20.769531 22.488281 20.9375 22.417969 21.113281 22.417969 Z M 21.113281 22.417969 " fill-opacity="1" fill-rule="nonzero"/></g><g fill="#000000" fill-opacity="1"><g transform="translate(14.712203, 19.193025)"><g><path d="M 6.40625 0.203125 C 5.476562 0.203125 4.648438 0.078125 3.921875 -0.171875 C 3.191406 -0.421875 2.582031 -0.75 2.09375 -1.15625 C 1.601562 -1.5625 1.238281 -2.007812 1 -2.5 L 1.9375 -3.640625 L 2.1875 -3.640625 C 3.101562 -2.109375 4.507812 -1.34375 6.40625 -1.34375 C 7.5 -1.34375 8.316406 -1.570312 8.859375 -2.03125 C 9.398438 -2.488281 9.671875 -3.128906 9.671875 -3.953125 C 9.671875 -4.429688 9.582031 -4.835938 9.40625 -5.171875 C 9.226562 -5.515625 8.929688 -5.800781 8.515625 -6.03125 C 8.109375 -6.269531 7.554688 -6.476562 6.859375 -6.65625 L 5.15625 -7.078125 C 3.875 -7.378906 2.929688 -7.863281 2.328125 -8.53125 C 1.722656 -9.207031 1.421875 -10.0625 1.421875 -11.09375 C 1.421875 -11.820312 1.609375 -12.46875 1.984375 -13.03125 C 2.359375 -13.601562 2.90625 -14.050781 3.625 -14.375 C 4.34375 -14.695312 5.203125 -14.859375 6.203125 -14.859375 C 7.304688 -14.859375 8.238281 -14.703125 9 -14.390625 C 9.757812 -14.078125 10.363281 -13.613281 10.8125 -13 L 9.984375 -11.859375 L 9.734375 -11.859375 C 9.304688 -12.367188 8.804688 -12.742188 8.234375 -12.984375 C 7.660156 -13.234375 6.984375 -13.359375 6.203125 -13.359375 C 5.191406 -13.359375 4.425781 -13.160156 3.90625 -12.765625 C 3.394531 -12.367188 3.140625 -11.820312 3.140625 -11.125 C 3.140625 -10.46875 3.328125 -9.941406 3.703125 -9.546875 C 4.085938 -9.160156 4.726562 -8.859375 5.625 -8.640625 L 7.390625 -8.21875 C 8.804688 -7.882812 9.832031 -7.375 10.46875 -6.6875 C 11.113281 -6 11.4375 -5.113281 11.4375 -4.03125 C 11.4375 -3.207031 11.25 -2.472656 10.875 -1.828125 C 10.5 -1.191406 9.929688 -0.691406 9.171875 -0.328125 C 8.421875 0.0234375 7.5 0.203125 6.40625 0.203125 Z M 6.40625 0.203125 "/></g></g></g></svg>